<svg xmlns="http://www.w3.org/2000/svg" viewBox="0 0 720 420" fill="none" aria-label="Pedido do WhatsApp vira ficha no Hayzer">
  <g>
    <rect x="20" y="20" width="320" height="380" rx="22" stroke="hsl(40 12% 71%)" stroke-width="2" fill="hsl(220 12% 10%)"/>
    <rect x="20" y="20" width="320" height="48" rx="22" fill="hsl(173 58% 18%)"/>
    <rect x="20" y="44" width="320" height="24" fill="hsl(173 58% 18%)"/>
    <circle cx="58" cy="44" r="14" fill="hsl(40 18% 86%)" fill-opacity="0.20"/>
    <rect x="80" y="34" width="80" height="6" rx="3" fill="hsl(40 18% 86%)"/>
    <rect x="80" y="46" width="48" height="4" rx="2" fill="hsl(40 18% 86%)" fill-opacity="0.55"/>
    <rect x="36" y="92" width="220" height="60" rx="10" fill="hsl(220 8% 22%)"/>
    <text x="46" y="112" font-family="Geist, sans-serif" font-size="11" fill="hsl(40 18% 86%)">Boa noite, queria 2 suportes</text>
    <text x="46" y="126" font-family="Geist, sans-serif" font-size="11" fill="hsl(40 18% 86%)">em PLA preto. Quanto fica?</text>
    <text x="46" y="142" font-family="Geist Mono, monospace" font-size="8" fill="hsl(40 12% 71%)">21:42</text>
    <rect x="84" y="166" width="240" height="56" rx="10" fill="hsl(173 58% 24%)"/>
    <text x="94" y="186" font-family="Geist, sans-serif" font-size="11" fill="hsl(40 18% 92%)">Fica R$ 47 cada · 73% margem</text>
    <text x="94" y="200" font-family="Geist, sans-serif" font-size="11" fill="hsl(40 18% 92%)">Pago via Pix. Pronto em 2d.</text>
    <text x="94" y="216" font-family="Geist Mono, monospace" font-size="8" fill="hsl(40 18% 92%)" fill-opacity="0.7">21:43 ✓✓</text>
    <rect x="36" y="238" width="120" height="36" rx="10" fill="hsl(220 8% 22%)"/>
    <text x="46" y="260" font-family="Geist, sans-serif" font-size="11" fill="hsl(40 18% 86%)">Fechado, manda Pix</text>
    <rect x="36" y="350" width="288" height="36" rx="18" stroke="hsl(40 12% 71%)" stroke-width="1.2" stroke-opacity="0.30"/>
    <text x="52" y="372" font-family="Geist, sans-serif" font-size="11" fill="hsl(40 12% 71%)" fill-opacity="0.5">Mensagem...</text>
  </g>
  <g>
    <path d="M348 210 Q 360 210 372 210" stroke="hsl(28 70% 60%)" stroke-width="2" stroke-linecap="round" stroke-dasharray="3 3"/>
    <path d="M364 204 L372 210 L364 216" stroke="hsl(28 70% 60%)" stroke-width="2" stroke-linecap="round" stroke-linejoin="round" fill="none"/>
  </g>
  <g>
    <rect x="392" y="40" width="308" height="340" rx="14" stroke="hsl(173 58% 54%)" stroke-width="1.4" fill="hsl(220 14% 11%)"/>
    <rect x="392" y="40" width="308" height="48" rx="14" fill="hsl(173 58% 54%)" fill-opacity="0.10"/>
    <text x="408" y="60" font-family="Geist Mono, monospace" font-size="9" letter-spacing="0.14em" fill="hsl(173 58% 64%)">PEDIDO · #0847</text>
    <text x="408" y="78" font-family="Geist, sans-serif" font-size="14" font-weight="600" fill="hsl(40 18% 92%)">Suporte Bambu X1 · PLA preto</text>
    <g transform="translate(640 52) rotate(-8)">
      <circle cx="22" cy="22" r="22" stroke="hsl(28 70% 60%)" stroke-width="1.6" fill="none"/>
      <circle cx="22" cy="22" r="18" stroke="hsl(28 70% 60%)" stroke-width="0.8" fill="none" stroke-opacity="0.5"/>
      <text x="22" y="20" font-family="Geist Mono, monospace" font-size="6" font-weight="700" letter-spacing="0.10em" fill="hsl(28 70% 60%)" text-anchor="middle">EM</text>
      <text x="22" y="28" font-family="Geist Mono, monospace" font-size="6" font-weight="700" letter-spacing="0.10em" fill="hsl(28 70% 60%)" text-anchor="middle">PRODUÇÃO</text>
    </g>
    <line x1="408" y1="108" x2="684" y2="108" stroke="hsl(40 18% 92%)" stroke-opacity="0.10"/>
    <text x="408" y="128" font-family="Geist Mono, monospace" font-size="9" letter-spacing="0.10em" fill="hsl(40 12% 71%)">CLIENTE</text>
    <text x="408" y="146" font-family="Geist, sans-serif" font-size="13" fill="hsl(40 18% 92%)">João S. · WhatsApp +55 ••• 4421</text>
    <text x="408" y="172" font-family="Geist Mono, monospace" font-size="9" letter-spacing="0.10em" fill="hsl(40 12% 71%)">QUANTIDADE</text>
    <text x="408" y="190" font-family="Geist, sans-serif" font-size="13" fill="hsl(40 18% 92%)">2 unidades · 200g cada</text>
    <text x="408" y="216" font-family="Geist Mono, monospace" font-size="9" letter-spacing="0.10em" fill="hsl(40 12% 71%)">FILAMENTO</text>
    <text x="408" y="234" font-family="Geist, sans-serif" font-size="13" fill="hsl(40 18% 92%)">PLA Preto · R$ 12,40 custo</text>
    <text x="408" y="260" font-family="Geist Mono, monospace" font-size="9" letter-spacing="0.10em" fill="hsl(40 12% 71%)">CANAL</text>
    <text x="408" y="278" font-family="Geist, sans-serif" font-size="13" fill="hsl(40 18% 92%)">WhatsApp · 0% taxa</text>
    <line x1="408" y1="298" x2="684" y2="298" stroke="hsl(40 18% 92%)" stroke-opacity="0.10"/>
    <text x="408" y="320" font-family="Geist Mono, monospace" font-size="9" letter-spacing="0.10em" fill="hsl(40 12% 71%)">PREÇO · MARGEM</text>
    <text x="408" y="352" font-family="Fraunces, Georgia, serif" font-size="28" font-weight="600" fill="hsl(40 18% 92%)">R$ 94,00</text>
    <text x="528" y="352" font-family="Fraunces, Georgia, serif" font-style="italic" font-size="20" font-weight="500" fill="hsl(173 58% 64%)">73% margem</text>
    <rect x="526" y="346" width="118" height="6" fill="hsl(28 70% 60%)" fill-opacity="0.45"/>
  </g>
</svg>
