<svg xmlns="http://www.w3.org/2000/svg" viewBox="0 0 128 80" fill="none" aria-label="WhatsApp e Pix integrados">
  <path d="M8 14 L48 14 Q54 14 54 20 L54 50 Q54 56 48 56 L24 56 L14 64 L18 56 L14 56 Q8 56 8 50 Z"
        stroke="hsl(173 58% 54%)" stroke-width="2" stroke-linejoin="round" fill="hsl(173 58% 54%)" fill-opacity="0.06"/>
  <path d="M16 26 L42 26" stroke="hsl(173 58% 64%)" stroke-width="1.6" stroke-linecap="round"/>
  <path d="M16 34 L36 34" stroke="hsl(173 58% 64%)" stroke-width="1.6" stroke-linecap="round"/>
  <path d="M16 42 L30 42" stroke="hsl(173 58% 64%)" stroke-width="1.6" stroke-linecap="round"/>
  <path d="M58 36 L74 36" stroke="hsl(28 70% 60%)" stroke-width="1.6" stroke-linecap="round" stroke-dasharray="3 3"/>
  <path d="M70 32 L74 36 L70 40" stroke="hsl(28 70% 60%)" stroke-width="1.6" stroke-linecap="round" stroke-linejoin="round"/>
  <g transform="translate(78 12)">
    <path d="M22 4 L40 22 L22 40 L4 22 Z" stroke="hsl(173 58% 54%)" stroke-width="2" stroke-linejoin="round"/>
    <path d="M22 4 L28 10 L16 10 Z" fill="hsl(28 70% 60%)" fill-opacity="0.85"/>
    <path d="M40 22 L34 28 L34 16 Z" fill="hsl(28 70% 60%)" fill-opacity="0.85"/>
    <path d="M22 40 L28 34 L16 34 Z" fill="hsl(28 70% 60%)" fill-opacity="0.85"/>
    <path d="M4 22 L10 28 L10 16 Z" fill="hsl(28 70% 60%)" fill-opacity="0.85"/>
    <circle cx="22" cy="22" r="3.5" fill="hsl(173 58% 54%)" fill-opacity="0.10" stroke="hsl(173 58% 54%)" stroke-width="1.4"/>
  </g>
</svg>
